<svg width="1280pt" height="1280pt" viewBox="0 0 1280 1280" xmlns="http://www.w3.org/2000/svg"><path style="color:#000;fill:#aad400;fill-opacity:1;stroke:none;stroke-width:.573783;stroke-linecap:round;stroke-linejoin:round;-inkscape-stroke:none;paint-order:stroke fill markers" d="M337.119 259.201a397.082 397.082 0 0 0-41.72 560.007 397.082 397.082 0 0 0 525.22 68.198l163.88 190.12a69.873 45.719 49.26 0 0 80.236 23.058 69.873 45.719 49.26 0 0-11.006-82.793L889.737 827.54a397.082 397.082 0 0 0 7.388-526.62 397.082 397.082 0 0 0-560.006-41.72Zm36.596 42.488a341.006 341.006 0 0 1 480.923 35.828 341.006 341.006 0 0 1-35.828 480.924 341.006 341.006 0 0 1-480.924-35.83 341.006 341.006 0 0 1 35.829-480.922z"/></svg>