<svg width="1700.787" height="1700.787" viewBox="0 0 1275.591 1275.591" xmlns="http://www.w3.org/2000/svg"><path style="color:#000;fill:#000;fill-opacity:1;stroke:none;stroke-width:1.34104;stroke-linecap:round;stroke-linejoin:round;-inkscape-stroke:none;paint-order:stroke fill markers" d="M1236.953 1236.265a132.098 132.098 0 0 0-.106-186.815L824.61 637.688l411.764-412.24a132.098 132.098 0 0 0-.107-186.812 132.098 132.098 0 0 0-186.814.108L637.691 450.978 225.454 39.213a132.098 132.098 0 0 0-186.815.107 132.098 132.098 0 0 0 .106 186.818l412.237 411.761-411.764 412.238a132.098 132.098 0 0 0 .104 186.814 132.098 132.098 0 0 0 186.818-.105l411.762-412.24 412.238 411.766a132.098 132.098 0 0 0 186.814-.108z"/></svg>