<svg width="1280pt" height="1280pt" viewBox="0 0 1280 1280" xmlns="http://www.w3.org/2000/svg"><path style="color:#000;fill:#aad400;stroke:none;stroke-width:.773421;stroke-linecap:round;stroke-linejoin:round;-inkscape-stroke:none;paint-order:stroke fill markers" d="M637.5 147.3a76.185 76.185 0 0 0-76.141 76.228l.192 336.036-336.037.194a76.185 76.185 0 0 0-76.14 76.229 76.185 76.185 0 0 0 76.228 76.14l336.035-.192.193 336.037a76.185 76.185 0 0 0 76.229 76.141 76.185 76.185 0 0 0 76.142-76.229l-.192-336.036 336.037-.193a76.185 76.185 0 0 0 76.141-76.228 76.185 76.185 0 0 0-76.228-76.143l-336.037.194-.193-336.038A76.185 76.185 0 0 0 637.5 147.3z"/></svg>