<svg width="1280pt" height="1280pt" viewBox="0 0 1280 1280" xmlns="http://www.w3.org/2000/svg"><path style="color:#000;fill:#aad400;stroke:none;stroke-width:1.02693;stroke-linecap:round;stroke-linejoin:round;-inkscape-stroke:none;paint-order:stroke fill markers;fill-opacity:1" d="M1096.6 1093.998a101.157 101.157 0 0 0-.081-143.058l-315.68-315.317 315.318-315.682a101.157 101.157 0 0 0-.082-143.056 101.157 101.157 0 0 0-143.057.083L637.701 492.646l-315.68-315.319a101.157 101.157 0 0 0-143.058.082 101.157 101.157 0 0 0 .081 143.06l315.68 315.316-315.318 315.681a101.157 101.157 0 0 0 .08 143.057 101.157 101.157 0 0 0 143.06-.08L637.863 778.76l315.681 315.32a101.157 101.157 0 0 0 143.057-.083z"/></svg>