<svg width="1700.787" height="1700.787" viewBox="0 0 1275.591 1275.591" xmlns="http://www.w3.org/2000/svg"><g transform="translate(-222.151 -219.353) scale(1.34834)"><circle style="fill:#f6ffd5;fill-opacity:1;stroke:#def87b;stroke-width:28.3465;stroke-linecap:round;stroke-linejoin:round;stroke-dasharray:none;stroke-opacity:1;paint-order:normal" cx="637.781" cy="635.706" r="458.849"/><path style="color:#000;fill:#e5ff80;stroke-linecap:round;stroke-linejoin:round;paint-order:markers fill stroke" d="M637.666 686.271c-110.888.119-204.222 84.707-215.215 195.049a33.519 33.519 0 0 0 65.7 12.088c18.84-69.52 80.527-121.831 140.894-129.92 60.367-8.089 122.209 18.75 158.84 131.51a33.519 33.519 0 0 0 65.225-13.678c-11-110.413-104.444-195.027-215.403-195.049a33.519 33.519 0 0 0-.04 0z"/><circle style="fill:#e5ff80;fill-opacity:1;stroke:none;stroke-width:40.0734;stroke-linecap:round;stroke-linejoin:round;stroke-dasharray:none;stroke-opacity:1;paint-order:markers fill stroke" cx="819.152" cy="452.311" r="94.66"/><circle style="fill:#e5ff80;fill-opacity:.964727;stroke:none;stroke-width:40.0734;stroke-linecap:round;stroke-linejoin:round;stroke-dasharray:none;stroke-opacity:1;paint-order:markers fill stroke" cx="456.409" cy="447.948" r="94.66"/></g></svg>