<svg width="1700.788" height="1700.787" viewBox="0 0 1275.591 1275.591" xmlns="http://www.w3.org/2000/svg"><path style="color:#000;fill:#000;stroke:none;stroke-width:1.00999;stroke-linecap:round;stroke-linejoin:round;-inkscape-stroke:none;paint-order:stroke fill markers" d="M637.43 0a99.488 99.488 0 0 0-99.432 99.545l.252 438.819-438.82.253A99.488 99.488 0 0 0 0 638.16a99.488 99.488 0 0 0 99.545 99.43l438.817-.252.252 438.82a99.488 99.488 0 0 0 99.545 99.431 99.488 99.488 0 0 0 99.432-99.544l-.252-438.819 438.82-.253a99.488 99.488 0 0 0 99.432-99.543 99.488 99.488 0 0 0-99.545-99.433l-438.82.253-.252-438.822A99.488 99.488 0 0 0 637.429 0Z"/></svg>