<svg width="1578.017" height="1700.787" viewBox="0 0 1183.513 1275.591" xmlns="http://www.w3.org/2000/svg"><path style="color:#000;fill:#000;fill-opacity:1;stroke:none;stroke-width:.774144;stroke-linecap:round;stroke-linejoin:round;-inkscape-stroke:none;paint-order:stroke fill markers" d="M385.286 292.8a535.74 535.74 0 0 0-56.289 755.556 535.74 535.74 0 0 0 708.623 92.013l221.107 256.51a94.273 61.683 49.26 0 0 108.253 31.108 94.273 61.683 49.26 0 0-14.849-111.704L1130.874 1059.6a535.74 535.74 0 0 0 9.968-710.512A535.74 535.74 0 0 0 385.286 292.8zm49.375 57.324a460.083 460.083 0 0 1 648.857 48.34 460.083 460.083 0 0 1-48.338 648.858 460.083 460.083 0 0 1-648.858-48.34 460.083 460.083 0 0 1 48.339-648.858z" transform="translate(-199.18 -162.982)"/></svg>