<svg width="1700.787" height="1368.367" viewBox="0 0 1275.591 1026.276" xml:space="preserve" xmlns="http://www.w3.org/2000/svg"><path style="color:#000;fill:#000;stroke-width:.989242;stroke-linecap:round;stroke-linejoin:round" d="M151.792 136.104c-59.482.489-137.588 4.878-137.588 4.878l-.03 56.543 149.056.151L419.734 962.56c-43.155 12.924-72.746 52.599-72.83 97.648 0 56.405 45.728 102.13 102.133 102.129 56.404 0 102.128-45.725 102.129-102.13 0-36.902-19.914-70.933-52.081-89.018l461.7 6.077a102.133 102.133 0 0 0-42.696 82.942c0 56.404 45.726 102.128 102.13 102.129 56.405 0 102.133-45.724 102.133-102.13-.01-52.712-40.13-111.501-92.614-116.413l-73.44-2.172-490.241-30.173-39.98-124.067c32.712 1.419 162.327 6.924 318.803 10.222 88.71 1.87 180.212 2.811 255.487 1.4 37.639-.705 71.196-1.99 98.624-4.095 27.428-2.105 47.665-4.321 64.134-9.898a26.641 26.641 0 0 0 16.352-15.755c16.731-43.947 42.73-151.663 66.27-252.419 23.538-100.755 43.406-191.843 43.406-191.843a26.641 26.641 0 0 0-26.026-32.317H266.66L217.855 141.23c-1.387-4.306-30.373-5.418-66.063-5.126z" transform="translate(-14.173 -136.06)"/></svg>