<svg width="1619.512" height="450mm" viewBox="0 0 1214.634 1275.591" xml:space="preserve" xmlns="http://www.w3.org/2000/svg"><path style="fill:#000;fill-opacity:1;stroke:none;stroke-width:38.9304;stroke-linecap:round;stroke-linejoin:round" d="M648.767 28.347a329.655 329.655 0 0 0-329.656 329.654 329.655 329.655 0 0 0 329.656 329.655A329.655 329.655 0 0 0 978.421 358 329.655 329.655 0 0 0 648.767 28.347ZM397.562 742.205c-61.127-.753-117.443 11.458-166.164 57.255C120.035 904.138 57.47 1046.112 57.47 1194.149a525.466 525.466 0 0 0 7.092 81.442h1173.46a525.47 525.47 0 0 0 7.09-81.442c0-148.037-62.565-290.011-173.928-394.69-111.362-104.677-262.402-33.887-419.893-33.887-88.588 0-175.137-22.399-253.73-23.367z" transform="translate(-43.975 -14.174)"/></svg>